<?xml version="1.0" standalone="no"?>
<!DOCTYPE svg PUBLIC "-//W3C//DTD SVG 20010904//EN"
 "http://www.w3.org/TR/2001/REC-SVG-20010904/DTD/svg10.dtd">
<svg version="1.0" xmlns="http://www.w3.org/2000/svg"
 width="1024.000000pt" height="1024.000000pt" viewBox="0 0 1024.000000 1024.000000"
 preserveAspectRatio="xMidYMid meet">

<g transform="translate(0.000000,1024.000000) scale(0.100000,-0.100000)"
fill="#000000" stroke="none">
<path d="M6630 8763 c-52 -19 -133 -47 -180 -62 -47 -16 -137 -49 -200 -73
-63 -25 -169 -64 -235 -88 -66 -24 -194 -72 -285 -108 -91 -35 -244 -93 -340
-129 -253 -95 -412 -155 -520 -197 -223 -87 -309 -118 -375 -135 -38 -10 -70
-24 -69 -30 1 -6 2 -220 3 -476 l1 -464 133 -42 c124 -38 437 -152 662 -239
827 -323 1405 -533 1422 -517 3 4 -3 20 -15 35 -55 67 -137 200 -167 270 -79
182 -132 485 -145 827 -10 272 -3 410 36 634 44 255 92 411 180 579 47 91 128
189 183 223 48 30 4 26 -89 -8z m-528 -648 c22 -48 -12 -67 -220 -125 -103
-28 -225 -65 -272 -80 -79 -27 -227 -73 -476 -149 -56 -17 -109 -31 -117 -31
-8 0 -17 -4 -19 -9 -7 -17 -232 -84 -287 -85 -51 -1 -56 1 -69 27 -9 18 -10
33 -5 38 11 11 437 150 653 213 80 24 206 62 280 85 149 45 488 139 508 140 7
1 18 -10 24 -24z m-337 -641 c167 -4 295 -11 303 -16 18 -15 15 -63 -6 -82
-17 -15 -64 -15 -613 -6 -327 6 -636 13 -687 16 -86 5 -92 7 -98 29 -11 46 -2
60 46 67 47 7 551 3 1055 -8z m-860 -239 c88 -14 266 -39 395 -55 558 -70 774
-101 786 -111 17 -14 18 -41 2 -57 -16 -16 -71 -15 -263 3 -484 47 -1140 140
-1172 167 -34 28 2 78 56 78 20 0 108 -12 196 -25z"/>
<path d="M6865 8703 c-55 -14 -160 -124 -207 -218 -78 -155 -148 -384 -160
-524 l-3 -34 71 -12 c168 -29 287 -81 335 -148 58 -79 80 -144 91 -260 25
-259 -49 -433 -208 -486 -71 -24 -170 -41 -236 -41 -47 0 -48 0 -48 -32 0
-164 127 -503 233 -623 68 -79 112 -105 172 -105 126 0 234 111 324 330 36 89
95 322 110 435 25 185 41 362 41 442 0 92 -24 374 -41 488 -38 251 -164 585
-264 703 -57 66 -144 101 -210 85z m62 -238 c-16 -14 -33 -22 -39 -19 -13 8
30 44 52 43 10 0 5 -8 -13 -24z m113 -183 c0 -11 -14 -25 -36 -35 -30 -15 -37
-15 -49 -3 -16 16 -7 28 36 45 36 15 49 13 49 -7z m45 -232 c0 -18 -8 -26 -30
-32 -60 -16 -74 11 -22 42 38 24 52 21 52 -10z m44 -209 c14 -25 -9 -31 -114
-30 l-80 0 70 24 c87 29 112 30 124 6z m46 -200 c13 -41 -3 -51 -81 -51 -77 0
-86 6 -56 33 43 39 127 50 137 18z m-22 -222 c-7 -7 -21 -7 -44 -1 l-34 10 45
1 c31 1 41 -2 33 -10z m17 -174 c21 -25 1 -38 -49 -32 -67 9 -122 27 -116 38
10 16 151 11 165 -6z m-34 -210 c4 -8 3 -22 0 -31 -5 -14 -10 -14 -38 5 -45
28 -46 41 -4 41 23 0 39 -5 42 -15z m-56 -180 c13 -8 0 -35 -16 -35 -8 0 -23
5 -34 10 -11 6 -29 15 -40 20 -11 6 -27 10 -35 10 -9 0 -14 4 -11 8 5 9 120
-3 136 -13z"/>
<path d="M8350 8184 c-47 -19 -227 -82 -400 -141 -173 -58 -323 -112 -332
-121 -28 -24 -22 -60 16 -98 l34 -34 53 16 c106 32 278 86 489 154 118 39 234
75 257 80 52 13 80 41 89 89 6 30 3 38 -25 63 -41 37 -73 35 -181 -8z"/>
<path d="M2145 7953 c-100 -21 -229 -88 -203 -104 7 -5 111 -9 231 -9 l217 0
0 60 0 60 -112 -1 c-62 -1 -122 -3 -133 -6z"/>
<path d="M2520 7415 c0 -495 2 -547 16 -541 9 3 46 6 82 6 l67 0 85 83 c47 46
110 99 141 119 30 19 86 71 125 114 140 159 187 204 241 230 49 24 62 26 136
22 110 -7 204 -47 362 -154 68 -45 181 -110 252 -142 70 -33 153 -74 183 -91
30 -17 61 -31 68 -31 9 0 12 99 12 460 l0 460 -847 0 c-467 0 -865 3 -885 6
l-38 7 0 -548z m1561 241 c16 -35 4 -72 -28 -84 -19 -7 -233 -11 -638 -10
-592 0 -611 0 -642 20 -40 24 -42 50 -7 77 26 21 34 21 666 21 l638 0 11 -24z"/>
<path d="M1810 7719 l-41 -64 38 -7 c52 -10 572 -7 579 3 2 5 2 31 -2 58 l-6
50 -242 4 c-132 2 -251 7 -263 11 -19 7 -27 0 -63 -55z"/>
<path d="M6465 7759 c-18 -55 -5 -617 15 -649 6 -10 24 -10 89 -1 240 35 287
90 284 330 -4 219 -39 269 -224 321 -100 27 -155 27 -164 -1z"/>
<path d="M1731 7520 c-6 -28 -11 -53 -11 -55 0 -3 149 -5 330 -5 l330 0 0 55
0 55 -319 0 -319 0 -11 -50z"/>
<path d="M7635 7465 c-14 -13 -25 -32 -25 -43 0 -27 50 -70 90 -76 19 -3 242
-6 495 -7 l459 -1 23 26 c13 15 23 38 23 52 0 28 -32 64 -57 64 -10 0 -235 2
-501 5 l-483 5 -24 -25z"/>
<path d="M1948 7373 c-243 -4 -225 3 -211 -76 l6 -39 318 4 319 3 0 58 0 57
-107 -2 c-60 -2 -206 -4 -325 -5z"/>
<path d="M3316 7289 c-52 -35 -111 -100 -181 -198 -46 -66 -57 -101 -31 -101
13 0 64 -19 351 -129 143 -56 144 -56 158 -18 6 18 40 90 75 162 l64 130 -37
32 c-67 57 -274 153 -333 153 -10 0 -40 -14 -66 -31z"/>
<path d="M1887 7183 l-117 -4 41 -54 c39 -52 51 -61 74 -55 6 1 122 2 259 1
l248 -2 -7 53 c-4 29 -8 54 -9 54 -4 5 -391 10 -489 7z"/>
<path d="M3822 6988 c-28 -35 -58 -71 -66 -80 -18 -20 -66 -113 -66 -127 0 -6
26 -19 58 -31 78 -29 150 -83 169 -128 21 -49 20 -153 -1 -226 -39 -134 -218
-246 -396 -246 -30 0 -71 -3 -91 -6 -34 -6 -37 -9 -48 -56 -16 -71 -14 -98 12
-142 26 -46 94 -85 147 -86 117 -1 198 73 280 254 15 34 46 93 70 131 61 99
289 563 296 603 5 24 2 38 -12 53 -18 20 -237 132 -280 144 -16 4 -31 -8 -72
-57z"/>
<path d="M7626 7019 c-54 -64 -20 -111 102 -140 45 -10 140 -41 210 -68 70
-27 197 -74 282 -104 85 -31 172 -63 192 -71 81 -35 148 -4 148 68 0 47 -26
65 -151 105 -57 17 -198 66 -314 108 -234 84 -389 133 -422 133 -12 0 -33 -14
-47 -31z"/>
<path d="M1966 6961 c53 -48 171 -82 307 -88 l118 -6 -3 59 -3 59 -225 2 -225
3 31 -29z"/>
<path d="M2854 6857 c-79 -85 -249 -285 -366 -432 -52 -66 -135 -165 -184
-220 -128 -143 -134 -152 -134 -197 0 -51 30 -125 160 -393 125 -258 267 -527
320 -605 56 -83 126 -156 194 -204 139 -99 265 -141 396 -133 243 15 395 195
377 448 -7 105 -61 221 -161 343 -91 111 -361 377 -438 429 l-56 39 -81 -26
c-91 -29 -126 -35 -223 -39 l-68 -3 0 35 c0 20 4 41 8 48 4 7 37 17 72 22 172
28 245 69 328 185 l61 86 -51 68 c-53 70 -111 179 -102 194 11 17 33 7 80 -35
105 -93 183 -132 327 -161 233 -48 431 18 472 158 19 65 19 89 -2 109 -17 15
-89 46 -293 127 -52 21 -140 56 -195 79 -95 40 -366 141 -377 141 -3 0 -31
-28 -64 -63z"/>
<path d="M4290 6729 c-16 -27 -30 -51 -30 -54 0 -20 -186 -372 -266 -503 -149
-245 -194 -325 -194 -346 0 -66 83 -157 155 -170 81 -15 184 41 225 121 20 39
142 243 240 403 187 303 210 344 210 376 0 56 -61 104 -241 190 l-68 33 -31
-50z"/>
<path d="M4712 6407 c-17 -25 -76 -118 -130 -208 -54 -90 -138 -229 -187 -309
-102 -168 -121 -212 -111 -261 8 -44 60 -107 102 -125 65 -27 147 -11 198 40
18 19 75 101 126 182 51 82 116 185 145 229 163 252 175 274 175 308 0 46 -47
88 -157 138 -124 58 -123 58 -161 6z"/>
<path d="M5437 6325 c-24 -24 -41 -76 -31 -94 14 -22 95 -73 309 -195 99 -56
227 -133 285 -172 58 -39 128 -83 155 -99 28 -15 79 -47 115 -70 89 -58 365
-213 480 -270 52 -26 136 -71 185 -100 50 -28 173 -96 275 -150 102 -54 247
-131 323 -172 76 -41 151 -78 167 -83 35 -10 58 11 70 67 13 54 -5 75 -97 119
-43 20 -112 56 -153 79 -41 23 -196 109 -345 190 -148 81 -292 162 -320 180
-27 17 -117 66 -200 110 -302 157 -285 147 -510 298 -205 138 -366 230 -560
319 -121 56 -132 59 -148 43z"/>
<path d="M3139 6158 c-12 -24 -37 -65 -56 -91 -20 -26 -34 -49 -32 -51 55 -48
165 -135 188 -149 l31 -18 0 24 c0 14 -7 41 -15 60 -22 53 -19 84 16 157 17
36 30 67 30 69 0 5 -111 41 -128 41 -7 0 -22 -19 -34 -42z"/>
<path d="M5305 5877 c-8 -13 -20 -38 -26 -56 -15 -42 -6 -50 119 -128 114 -72
403 -263 606 -403 85 -58 173 -117 197 -132 24 -14 151 -97 281 -185 278 -185
409 -269 436 -277 24 -8 76 33 98 77 15 28 15 32 -3 55 -11 15 -69 56 -129 92
-60 37 -311 200 -559 365 -247 164 -504 331 -569 373 -264 165 -396 242 -415
242 -11 0 -27 -10 -36 -23z"/>
<path d="M4935 5815 c-65 -113 -238 -356 -272 -384 -20 -16 -65 -44 -100 -61
-50 -25 -63 -36 -63 -54 0 -28 -143 -310 -174 -344 -28 -31 -85 -60 -134 -68
-36 -6 -46 -2 -93 33 -30 22 -96 68 -148 103 -52 35 -113 79 -135 99 -78 70
-72 74 -72 -57 1 -170 -32 -268 -122 -365 l-47 -49 47 -43 c58 -53 186 -120
269 -141 86 -23 253 -23 339 -1 170 44 321 164 433 343 67 107 100 193 163
428 26 94 66 231 90 305 51 158 65 224 55 271 l-7 34 -29 -49z"/>
<path d="M3635 5737 c-11 -7 -66 -14 -123 -17 l-103 -5 61 -70 c33 -38 93
-110 134 -160 40 -49 84 -100 97 -111 70 -63 413 -312 446 -325 15 -6 31 -5
43 1 32 17 100 102 160 199 l58 94 -69 34 c-64 32 -98 63 -176 161 -18 23 -18
23 -53 5 -22 -11 -64 -19 -116 -21 -67 -3 -88 0 -127 18 -50 24 -117 91 -164
165 -30 48 -37 51 -68 32z"/>
<path d="M5162 5443 c-21 -46 -26 -65 -23 -89 0 -7 61 -59 134 -117 72 -58
175 -144 227 -192 52 -48 138 -119 190 -158 154 -115 289 -225 383 -313 49
-45 104 -90 123 -100 31 -17 37 -17 61 -4 14 8 35 32 45 52 18 33 18 39 4 66
-18 35 -183 175 -632 538 -61 49 -180 146 -266 215 -213 174 -213 174 -246
102z"/>
<path d="M2617 4562 c-42 -110 -94 -252 -117 -318 -22 -65 -54 -153 -70 -194
-72 -188 -193 -520 -243 -670 -31 -91 -78 -228 -106 -304 -28 -77 -49 -142
-46 -144 2 -3 107 25 232 62 125 36 361 103 524 147 l297 81 6 47 c6 43 159
533 251 801 89 260 155 470 155 494 0 35 -16 41 -53 19 -18 -11 -54 -25 -82
-32 -60 -15 -214 -15 -287 0 -99 21 -262 109 -340 183 -15 14 -31 26 -36 26
-5 0 -44 -89 -85 -198z"/>
<path d="M3585 4363 c-15 -42 -41 -120 -57 -172 -55 -173 -137 -423 -202 -616
-74 -217 -100 -305 -93 -311 2 -2 55 12 118 31 63 20 240 70 394 111 154 42
285 77 291 79 26 8 274 811 274 885 0 5 -21 0 -47 -11 -35 -16 -77 -23 -159
-26 -139 -7 -246 13 -363 68 -119 56 -123 55 -156 -38z"/>
<path d="M8030 4328 c-47 -10 -131 -30 -187 -43 -57 -14 -114 -25 -127 -25
-38 0 -38 -13 -1 -66 20 -27 39 -62 43 -79 4 -16 5 -273 2 -570 -5 -534 -5
-541 -28 -594 -12 -29 -21 -56 -18 -58 2 -2 26 5 53 16 52 22 223 71 247 71
26 0 28 18 6 59 -18 36 -20 59 -20 229 l0 188 79 23 c44 13 102 34 130 47 61
28 144 103 178 161 47 80 51 112 44 313 -8 207 -17 238 -85 298 -64 56 -161
65 -316 30z m132 -239 l31 -30 -5 -135 c-4 -132 -5 -135 -33 -164 -27 -28 -57
-41 -132 -56 l-30 -6 4 194 4 193 47 17 c66 23 80 22 114 -13z"/>
<path d="M7316 4149 c-129 -31 -255 -132 -309 -246 l-32 -68 -3 -415 c-2 -266
1 -428 7 -450 14 -48 72 -114 129 -148 41 -24 57 -27 127 -26 118 1 197 36
291 128 61 61 74 81 98 147 l28 76 -4 404 c-5 450 -5 449 -75 521 -62 64 -174
97 -257 77z m58 -264 c14 -13 26 -28 26 -32 6 -159 7 -382 2 -538 l-5 -200
-39 -37 c-50 -48 -86 -50 -122 -7 l-26 31 0 365 0 365 39 39 c47 47 85 51 125
14z"/>
<path d="M6435 3905 c-49 -13 -110 -31 -135 -40 -25 -9 -75 -19 -112 -22 -42
-4 -68 -10 -68 -17 0 -7 13 -30 29 -52 15 -21 33 -55 40 -74 7 -25 10 -194 7
-575 -3 -464 -6 -547 -20 -590 -21 -65 -20 -68 7 -51 24 15 220 76 246 76 35
0 42 14 26 53 -12 28 -15 79 -15 231 0 183 1 196 19 206 11 5 26 10 35 10 16
0 51 -100 110 -308 19 -68 36 -126 39 -128 3 -3 49 9 102 26 54 17 120 36 147
41 l50 11 -30 28 c-41 37 -59 74 -92 193 -38 132 -77 246 -91 263 -8 10 -1 23
31 56 22 24 54 70 70 102 30 58 30 61 30 225 0 187 -6 220 -52 275 -72 87
-197 108 -373 61z m129 -225 c41 -15 56 -58 56 -162 0 -121 -15 -153 -89 -190
-92 -47 -91 -49 -93 107 -1 74 -2 156 -3 182 l0 46 45 12 c25 7 48 13 52 14 4
0 18 -3 32 -9z"/>
<path d="M6075 3801 c-13 -12 -371 -119 -550 -165 -77 -19 -189 -51 -250 -71
-118 -38 -391 -109 -465 -121 -25 -3 -47 -10 -50 -13 -6 -9 -155 -56 -228 -73
-43 -9 -56 -17 -63 -37 -5 -15 -23 -57 -39 -96 -27 -66 -74 -187 -137 -356
l-28 -75 0 215 c1 149 5 225 13 245 7 16 9 33 4 38 -5 5 -63 -7 -133 -26 -68
-18 -143 -37 -166 -41 -24 -4 -43 -9 -43 -11 0 -3 18 -27 40 -55 22 -28 40
-61 40 -72 1 -12 0 -267 0 -566 -1 -519 -2 -547 -20 -589 -27 -60 -26 -63 18
-45 46 19 218 71 252 75 28 3 29 13 5 78 -14 37 -16 68 -12 175 5 115 9 138
35 198 l29 68 31 -83 c81 -216 103 -282 109 -328 4 -35 9 -47 17 -41 6 5 74
25 151 44 77 20 165 44 195 55 75 28 166 54 360 102 91 23 173 44 183 46 15 5
17 20 17 130 l0 124 -27 -6 c-16 -4 -35 -10 -44 -15 -15 -8 -256 -69 -272 -69
-4 0 -7 64 -5 141 l3 142 120 33 c65 19 127 34 137 34 17 0 18 8 12 123 -4 67
-7 123 -8 123 0 1 -46 -13 -101 -31 -55 -18 -113 -35 -130 -36 l-30 -4 -3 105
c-1 58 1 123 6 145 7 36 12 40 47 48 22 5 72 18 110 29 39 11 92 23 120 27
l49 6 -2 135 -3 135 25 -41 c21 -34 26 -57 28 -118 3 -63 6 -75 18 -70 8 4 44
15 80 25 112 33 100 88 100 -468 0 -399 -3 -498 -15 -543 -8 -30 -15 -56 -15
-57 0 -1 19 7 43 17 23 10 86 30 140 44 54 14 103 29 108 32 6 3 1 20 -11 38
-19 32 -20 48 -20 518 0 407 2 487 14 497 8 7 59 22 114 34 l99 22 6 125 c3
69 9 133 12 143 8 18 -5 23 -20 8z m-1266 -465 c7 -20 7 -222 2 -586 -7 -453
-11 -562 -23 -594 l-15 -38 -27 35 c-49 64 -235 511 -243 582 -4 42 2 70 40
175 85 236 117 312 168 401 49 85 53 89 70 73 10 -9 23 -30 28 -48z"/>
<path d="M3638 3129 c-21 -12 -196 -55 -263 -65 -27 -3 -53 -9 -58 -11 -4 -2
11 -25 33 -50 22 -25 42 -59 45 -77 3 -17 5 -276 3 -576 l-3 -545 -27 -57
c-15 -32 -24 -58 -21 -58 3 0 29 11 58 25 55 25 292 96 457 135 l97 24 -1 127
-2 127 -35 -14 c-29 -11 -265 -74 -278 -74 -2 0 -3 222 -3 494 l0 493 25 47
c14 26 25 51 25 57 0 12 -30 11 -52 -2z"/>
<path d="M2925 2927 c-104 -35 -185 -95 -244 -180 -62 -90 -60 -78 -61 -548
l-2 -430 26 -43 c34 -57 96 -112 143 -125 79 -22 175 -7 272 43 73 38 171 154
200 236 18 52 15 832 -3 894 -19 64 -47 98 -107 130 -62 34 -160 44 -224 23z
m92 -241 l28 -24 -4 -369 c-3 -347 -4 -370 -23 -396 -41 -57 -110 -73 -147
-33 l-22 24 1 373 c1 411 0 407 63 434 46 20 72 18 104 -9z"/>
<path d="M2520 2815 c-65 -25 -436 -125 -520 -140 -45 -8 -84 -16 -86 -18 -2
-2 9 -19 25 -38 55 -67 52 -40 53 -647 0 -552 0 -569 -21 -626 -22 -62 -21
-77 2 -57 22 18 122 49 210 66 44 8 82 17 83 18 2 2 -5 31 -16 65 -16 52 -19
95 -20 274 l-2 212 99 27 c54 15 115 30 136 34 l37 6 0 136 c0 125 -1 135 -17
128 -23 -10 -112 -39 -190 -63 l-63 -19 0 152 0 153 83 22 c45 12 120 30 166
40 l84 17 1 136 c1 76 -1 137 -4 136 -3 0 -21 -6 -40 -14z"/>
</g>
</svg>
